<svg width="1920" height="1080" xmlns="http://www.w3.org/2000/svg">
  <!-- 柔和粉紫渐变背景 匹配小象图标治愈系 -->
  <defs>
    <linearGradient id="bgGradient" x1="0%" y1="0%" x2="100%" y2="100%">
      <stop offset="0%" style="stop-color:#f5edf2;stop-opacity:1" />
      <stop offset="100%" style="stop-color:#e8ccd7;stop-opacity:1" />
    </linearGradient>
  </defs>
  
  <!-- 背景 -->
  <rect width="100%" height="100%" fill="url(#bgGradient)" />
  
  <!-- 装饰气泡 -->
  <circle cx="150" cy="150" r="40" fill="#b388eb" opacity="0.2"/>
  <circle cx="1770" cy="200" r="60" fill="#b388eb" opacity="0.2"/>
  <circle cx="200" cy="900" r="50" fill="#b388eb" opacity="0.2"/>
  <circle cx="1700" cy="920" r="45" fill="#b388eb" opacity="0.2"/>
  
  <!-- 装饰星星 -->
  <path d="M 120 80 L 130 110 L 160 110 L 135 130 L 145 160 L 120 140 L 95 160 L 105 130 L 80 110 L 110 110 Z" fill="#8e44ad" opacity="0.2"/>
  <path d="M 1750 800 L 1760 820 L 1785 820 L 1765 835 L 1772 858 L 1750 843 L 1728 858 L 1735 835 L 1715 820 L 1740 820 Z" fill="#8e44ad" opacity="0.2"/>
  
  <!-- 主标题 只有聪明格 -->
  <text x="500" y="520" font-size="180" font-weight="bold" text-anchor="middle" fill="#6a4c93">聪明格</text>
  
  <!-- 右侧浅色圆形衬托小象区域 -->
  <circle cx="1200" cy="500" r="300" fill="white" opacity="0.4"/>
  
  <!-- 漂浮小花朵 -->
  <g transform="translate(150, 500)">
    <circle cx="0" cy="0" r="18" fill="#f8c8dc" opacity="0.8"/>
    <circle cx="-22" cy="-22" r="12" fill="#f8c8dc" opacity="0.8"/>
    <circle cx="22" cy="-22" r="12" fill="#f8c8dc" opacity="0.8"/>
    <circle cx="-22" cy="22" r="12" fill="#f8c8dc" opacity="0.8"/>
    <circle cx="22" cy="22" r="12" fill="#f8c8dc" opacity="0.8"/>
    <circle cx="0" cy="0" r="8" fill="#fff" opacity="1"/>
  </g>
  
  <g transform="translate(1700, 400)">
    <circle cx="0" cy="0" r="15" fill="#e1bee7" opacity="0.8"/>
    <circle cx="-18" cy="-18" r="10" fill="#e1bee7" opacity="0.8"/>
    <circle cx="18" cy="-18" r="10" fill="#e1bee7" opacity="0.8"/>
    <circle cx="-18" cy="18" r="10" fill="#e1bee7" opacity="0.8"/>
    <circle cx="18" cy="18" r="10" fill="#e1bee7" opacity="0.8"/>
    <circle cx="0" cy="0" r="6" fill="#fff" opacity="1"/>
  </g>
  
  <!-- 装饰数字透明 -->
  <text x="120" y="200" font-size="90" fill="#8e44ad" opacity="0.15">3</text>
  <text x="1780" y="200" font-size="90" fill="#8e44ad" opacity="0.15">5</text>
  <text x="120" y="950" font-size="90" fill="#8e44ad" opacity="0.15">7</text>
  <text x="1780" y="950" font-size="90" fill="#8e44ad" opacity="0.15">9</text>
</svg>
