<svg width="512" height="512" xmlns="http://www.w3.org/2000/svg">
  <!-- 方形背景 紫色渐变 -->
  <defs>
    <linearGradient id="bgGradient" x1="0%" y1="0%" x2="100%" y2="100%">
      <stop offset="0%" style="stop-color:#667eea;stop-opacity:1" />
      <stop offset="100%" style="stop-color:#764ba2;stop-opacity:1" />
    </linearGradient>
  </defs>
  
  <!-- 方形背景 没有圆角 就是方图 -->
  <rect width="100%" height="100%" fill="url(#bgGradient)" rx="0" ry="0"/>
  
  <!-- 治愈系思考小熊 居中 -->
  <g transform="translate(106, 140) scale(1.8)">
    <!-- 身体 -->
    <ellipse cx="120" cy="160" rx="90" ry="80" fill="#6b4423" opacity="1"/>
    <!-- 头 -->
    <circle cx="120" cy="60" r="75" fill="#8b6240" opacity="1"/>
    <!-- 耳朵 -->
    <circle cx="65" cy="15" r="28" fill="#8b6240"/>
    <circle cx="175" cy="15" r="28" fill="#8b6240"/>
    <!-- 内耳 -->
    <circle cx="65" cy="15" r="14" fill="#d2b48c"/>
    <circle cx="175" cy="15" r="14" fill="#d2b48c"/>
    <!-- 眼睛 闭眼思考状 -->
    <path d="M 90 50 Q 105 65 120 50" stroke="#222" stroke-width="5" fill="none" rx="10"/>
    <path d="M 120 50 Q 135 65 150 50" stroke="#222" stroke-width="5" fill="none"/>
    <!-- 鼻子 -->
    <ellipse cx="120" cy="78" rx="14" ry="10" fill="#333"/>
    <!-- 嘴巴微笑 -->
    <path d="M 105 95 Q 120 108 135 95" stroke="#333" stroke-width="4" fill="none"/>
    <!-- 爪子数字装饰 -->
    <rect x="70" y="170" width="30" height="30" rx="6" fill="white" opacity="0.95"/>
    <text x="85" y="191" font-size="20" text-anchor="middle" fill="#667eea" font-weight="bold">3</text>
    <rect x="115" y="170" width="30" height="30" rx="6" fill="white" opacity="0.95"/>
    <text x="130" y="191" font-size="20" text-anchor="middle" fill="#667eea" font-weight="bold">5</text>
  </g>
  
  <!-- 标题 -->
  <text x="256" y="440" font-size="48" font-weight="bold" text-anchor="middle" fill="white">聪明格</text>
</svg>
